<svg xmlns="http://www.w3.org/2000/svg" xmlns:xlink="http://www.w3.org/1999/xlink" preserveAspectRatio="xMidYMid meet" version="1.0" viewBox="-0.1 -3.5 433.2 226.4" zoomAndPan="magnify" style="fill: rgb(56, 189, 248);" original_string_length="40227"><g><g id="__id0_s26hz98ztx"><path d="M299.498,98.083c-1.587,7.704-3.624,15.188-8.298,21.772c-8.109,11.424-18.705,20.127-30.129,27.92 c-2.155,1.47-2.921,2.989-2.88,5.515c0.312,19.506,0.439,39.014,0.805,58.519c0.054,2.854-0.806,3.844-3.556,4.44 c-30.987,6.714-61.958,5.779-92.973,0.241c-2.652-0.474-3.287-1.475-3.29-4.037c-0.023-21.152-0.186-42.305-0.361-63.456 c-0.009-1.122-0.23-2.418-0.819-3.333c-7.532-11.689-11.342-24.573-12.472-38.322c-0.356-4.328-0.509-8.673-0.772-13.314 c-6.174,1.049-12.157,2.066-18.357,3.12c0.146,1.221,0.251,2.196,0.38,3.168c2.071,15.515,2.89,31.043,0.221,46.574 c-1.511,8.789-3.978,17.278-9.533,24.46c-5.786,7.481-13.217,11.502-22.904,9.133c-3.207-0.784-6.185-2.502-9.463-3.875 c-5.076,4.951-11.226,6.16-17.901,3.205c-2.787-1.234-5.295-3.18-7.76-5.029c-1.784-1.338-3.286-3.051-4.874-4.558 c-5.735,3.626-9.673,3.656-15.048-0.207c-2.271-1.632-4.363-3.618-6.196-5.737c-5.725-6.619-9.731-14.301-13.035-22.335 c-2.309-5.614-4.309-11.354-6.441-17.022c-5.378,0.798-6.833,0.122-9.426-4.754c-2.919-5.489-4.266-11.437-4.393-17.605 c-0.107-5.205-0.172-10.605,6.924-11.322c-0.34-4.646-0.794-9-0.942-13.364c-0.151-4.461-0.173-8.94,0.054-13.396 c0.366-7.209,1.371-14.326,4.217-21.058c2.067-4.891,5.647-8.406,10.893-8.891c4.212-0.389,5.503-2.499,6.886-5.964 c4.343-10.88,10.393-14.668,21.127-13.894c0.79-1.264,1.576-2.591,2.426-3.875C59.104-0.521,70.244-3.077,81.93,3.903 c7.204,4.303,12.552,10.515,17.259,17.301c9.346,13.475,15.437,28.453,20.124,44.062c0.407,1.354,0.874,2.691,1.279,3.931 c8.7-1.408,17.075-2.716,25.418-4.203c0.703-0.125,1.566-1.39,1.718-2.239c1.395-7.783,2.581-15.604,3.964-23.39 c1.295-7.295,4.494-13.504,11.1-17.393c5.88-3.462,11.977-3.919,18.063-0.501c5.121-8.303,18.908-12.957,29.992-6.214 c10.237-10.252,24.283-10.423,37.057-0.616c2.517-0.892,4.833-2.135,7.281-2.505c10.279-1.554,18.43,2.079,24.29,10.68 c3.65,5.358,5.616,11.38,7.05,17.654c0.369,1.613,1.349,3.622,2.667,4.395c8.597,5.044,13.757,11.877,12.451,22.469 c3.739,0.708,7.197,1.363,10.772,2.04c0.328-1.041,0.61-1.892,0.865-2.752c4.236-14.29,9.596-28.102,17.512-40.811 c4.999-8.026,10.723-15.436,18.623-20.873c12.236-8.42,24.394-5.962,32.421,6.506c0.727,1.129,1.438,2.267,2.124,3.348 c8.212-1.499,14.1,1.807,18.241,8.399c1.725,2.747,2.891,5.863,4.136,8.884c0.51,1.237,1.015,1.836,2.471,1.912 c7.236,0.377,12.09,4.042,14.515,10.887c4.237,11.957,4.189,24.327,3.516,36.748c-0.172,3.17-0.541,6.328-0.815,9.45 c5.862,2.126,6.991,3.678,7.024,10.049c0.031,6.184-1.204,12.139-3.799,17.765c-2.641,5.722-4.039,6.52-10.289,6.16 c-0.227,0.645-0.444,1.328-0.705,1.995c-2.719,6.95-5.16,14.027-8.243,20.812c-3.517,7.741-7.924,15.018-14.489,20.673 c-6.007,5.174-10.328,5.575-17.107,1.815c-14.866,13.105-19.147,13.951-31.006,6.112c-0.775,0.463-1.546,0.95-2.341,1.394 c-10.125,5.657-20.377,4.248-27.825-4.657c-3.316-3.964-5.959-8.783-7.798-13.633c-5.475-14.448-5.631-29.601-4.665-44.781 c0.369-5.802,1.12-11.58,1.722-17.617c-2.152-0.373-4.267-0.74-6.634-1.15C299.689,97.022,299.607,97.555,299.498,98.083z M183.898,63.043c-0.663-1.587-1.16-3.246-1.697-4.884c-0.678-2.072-1.929-2.746-4.023-1.68c1.117,3.693,2.188,7.387,3.379,11.042 c0.237,0.728,0.936,1.306,1.422,1.953c-2.263-0.239-4.738,0.025-6.749-0.818c-4.507-1.889-6.96-5.983-9.287-10.055 c-0.583-1.02-1.199-2.021-2.063-2.86c2.449,5.788,4.665,11.792,10.372,15.363c3.098,1.939,6.47,1.586,9.688,0.035 c2.163-1.043,3.063-2.873,2.557-5.19c-2.31-10.583-4.679-21.153-7.049-31.723c-0.178-0.795-0.513-1.556-0.8-2.324 c-2.582-6.906-6.808-8.504-13.278-5.028c-3.613,1.941-6.37,5.502-7.294,9.042c1.709-1.527,3.533-3.842,5.917-5.092 c2.334-1.223,5.238-1.361,7.892-1.976c0.077,0.279,0.154,0.557,0.231,0.836c-1.454,0.635-2.949,1.192-4.35,1.926 c-1.339,0.702-2.581,1.589-3.673,2.892c1.68-0.301,3.361-0.601,5.041-0.902c-3.357,2.667-2.49,5.631-0.87,8.611 c1.478,2.718,2.977,5.433,4.644,8.037c0.627,0.979,1.749,1.641,2.729,2.524c-0.848,1.11-3.762,1.609-2.347,4.581 c1.652-3.063,3.747-4.318,6.334-3.876c0.532,0.091,1.08,0.233,1.557,0.477c3.187,1.636,5.037,12.134,2.552,14.664 c-0.46,0.468-1.229,0.633-1.855,0.937C184.66,67.611,184.908,65.46,183.898,63.043z M281.856,73.009 c-2.119,1.875-4.39,2.295-6.714,1.924c-2.022-0.323-3.171,0.502-3.871,2.147c-1.066,2.509-2.086,5.045-2.961,7.625 c-1.094,3.222,0.022,6.096,1.775,8.777c0.945,1.446,1.987,2.83,3.353,4.764c-5.913-2.339-9.191-6.365-11.133-11.698 c-0.26,0.051-0.519,0.102-0.779,0.153c0.309,3.49,0.617,6.979,0.932,10.534c-2.406-2.577-2.989-5.838-3.07-9.289 c-0.239-0.048-0.477-0.096-0.716-0.145c-0.644,2.052-1.288,4.104-2.114,6.739c-0.455-1.756-0.81-3.126-1.061-4.096 c-3.639,0.206-7.323,0.414-11.51,0.651c-9.456,13.846-16.168,16.691-27.128,10.866c-5.867,4.06-8.629,10.191-10.829,16.727 c-0.443-6.859,1.975-12.779,5.67-17.776c-3.574,0-7.23,0.126-10.874-0.034c-4.078-0.178-7.32-2.222-9.732-5.388 c-1.191-1.563-2.333-1.995-4.133-1.324c-8.523,3.176-17.077,6.269-25.575,9.508c-0.651,0.248-1.513,1.573-1.344,2.099 c3.903,12.191,9.407,23.397,20.708,30.531c7.58,4.784,16.092,6.2,24.915,5.716c1.963-0.108,3.253,0.351,4.505,1.769 c0.999,1.131,2.286,2.008,3.701,2.823c-3.511-3.87-6.015-8.13-6.306-13.714c5.958,8.452,14.566,9.308,23.356,8.551 c16.961-1.461,31.427-8.874,44.94-18.98c12.08-9.034,17.526-21.073,18.675-35.512c0.628-7.894,0.786-15.826,1.13-23.742 c0.034-0.787-0.113-1.582-0.218-2.915c-0.862,1.116-1.415,1.832-1.968,2.548c2.32-6.205-1.609-9.005-6.019-11.7 c-1.849-1.13-3.445-2.678-5.132-4.065c-2.264-1.86-4.623-3.493-7.882-3.725c-0.2,1.296-0.314,2.448-0.561,3.571 c-1.009,4.598-4.482,6.951-8.892,5.534c-2.812-0.904-5.611-2.275-7.987-4.019c-4.535-3.33-5.54-8.265-3.138-13.38 c0.761-1.62,1.78-3.12,2.684-4.68c-3-0.974-5.188,0.247-6.416,3.622c-1.543,4.24-1.039,8.491,0.367,12.602 c3.633,10.621,11.217,17.53,21.401,21.635c4.452,1.795,9.148,0.898,13.787-0.278c-1.688,2.44-3.459,3.322-8.984,5.043 C278.298,73.009,279.892,73.009,281.856,73.009z M63.39,173.181c8.043,6.431,14.292,5.856,21.398-1.874 c1.207,0.798,2.45,1.651,3.723,2.457c9.139,5.79,17.873,4.597,24.082-3.287c0.266-0.338,0.474-0.722,0.955-1.463 c-7.572,2.076-12.657-1.654-17.236-6.347c-7.709-7.9-12.746-17.527-16.907-27.576c-11.656-28.15-17.488-57.438-16.431-87.969 c0.266-7.671,1.185-15.309,3.955-22.518c1.255-3.266,2.993-6.487,5.141-9.237c3.227-4.132,7.627-5.01,12.556-3.294 c0.566,0.197,1.143,0.366,1.805,0.315C80.877,7.17,74.884,2.586,66.683,4.103c-8.267,1.529-12.023,8.225-15.471,15.084 c-0.398-0.024-0.78,0.043-1.087-0.08c-6.736-2.703-13.029,0.453-16.4,6.568c-2.051,3.721-3.486,7.782-5.339,12.012 c-0.714,0-1.875-0.008-3.035,0.001c-6.096,0.052-10.326,2.627-12.006,8.439c-1.607,5.562-3.055,11.344-3.326,17.088 c-1.413,29.961,4.415,58.564,17.617,85.523c2.495,5.095,6.176,9.634,9.525,14.274c1.142,1.582,2.847,2.828,4.469,3.983 c4.429,3.153,7.814,2.859,11.759-0.851c0.458-0.431,0.831-0.951,1.13-1.299C57.677,167.838,60.344,170.746,63.39,173.181z M378.546,165.078c4.716,5.38,9.287,5.625,15.493-0.2c6.926-6.501,11.278-14.756,14.852-23.365 c10.156-24.464,15.344-49.937,14.221-76.471c-0.255-6.025-1.518-12.113-3.131-17.948c-1.94-7.02-6.172-9.566-13.483-9.386 c-0.722,0.018-1.446,0.002-2.089,0.002c-1.234-3.236-2.24-6.461-3.669-9.488c-2.198-4.657-5.202-8.798-10.681-9.71 c-2.59-0.431-5.355,0.192-8.37,0.356c-3.637-6.842-7.581-14.216-17.024-14.961c-7.757-0.612-13.34,3.905-19.163,9.126 c0.846-0.151,1.085-0.148,1.284-0.236c6.603-2.941,11.814-1.456,15.838,4.564c3.31,4.952,4.885,10.564,5.9,16.327 c2.912,16.532,1.936,33.053-0.556,49.521c-3.095,20.452-8.464,40.256-17.573,58.922c-3.77,7.726-8.053,15.177-14.352,21.151 c-2.335,2.214-5.133,4.193-8.076,5.436c-2.357,0.995-5.253,0.713-7.782,0.984c3.798,9.039,14.771,9.889,28.051,1.614 c0.575,0.629,1.172,1.289,1.777,1.942c4.113,4.44,9.34,5.859,14.577,2.879c4.039-2.298,7.45-5.713,11.077-8.708 c0.894-0.738,1.54-1.774,2.279-2.648C378.234,164.921,378.439,164.956,378.546,165.078z M248.987,210.299 c2.561-0.563,3.221-1.618,3.205-4.192c-0.115-18.138-0.036-36.277-0.026-54.416c0-0.524-0.082-1.048-0.151-1.885 c-11.839,4.882-24.134,5.849-37.348,5.8c0,9.193,0,18.23,0,27.266c-0.317-0.001-0.634-0.001-0.951-0.002 c-0.453-8.046-1.024-16.089-1.29-24.141c-0.086-2.617-0.912-3.581-3.48-3.31c-1.514,0.16-3.059,0.029-4.942,0.029 c-0.316,15.177-0.63,30.271-0.944,45.364c-0.126,0.011-0.252,0.022-0.378,0.033c-0.754-6.357-1.518-12.712-2.259-19.071 c-0.97-8.325-1.935-16.65-2.869-24.979c-0.17-1.512-0.553-2.636-2.412-2.565c-0.711,0.027-1.43-0.261-2.15-0.376 c-5.811-0.932-6.062-0.933-6.142,5.219c-0.197,15.128-0.141,30.259-0.184,45.388c-0.007,2.355-0.001,4.709-0.001,7.376 C207.825,213.531,228.461,214.812,248.987,210.299z M225.079,78.399c0.243,4.925,0.479,9.697,0.728,14.729 c-1.675-0.147-2.907-0.256-4.138-0.364c-0.09,0.203-0.18,0.406-0.27,0.609c1.935,0.869,3.869,1.738,5.804,2.608 c-0.011,0.126-0.022,0.252-0.033,0.378c-1.73-0.117-3.46-0.234-5.19-0.352c-0.12,0.196-0.239,0.393-0.359,0.589 c1.537,0.796,2.993,1.958,4.627,2.321c4.886,1.083,10.192-1.413,12.463-5.89c2.097-4.134,3.122-8.375,1.325-13.111 c-0.971-2.559-1.345-5.576-1.12-8.315c0.945-11.517,2.186-23.011,3.389-34.506c0.341-3.257,0.822-6.508,1.425-9.727 c0.362-1.932,1.086-3.797,1.746-6.027c-2.989-3.885-6.865-7.001-12.441-7.197c-3.089-0.109-6.189-0.098-9.278,0.016 c-4.208,0.155-6.653,2.809-8.43,6.448c4.401-5.128,9.832-6.233,16.056-4.389c-3.925,0.602-8.575-0.653-10.208,4.124 c2.582,0,5.73,0,9.155,0c-0.41,0.321-0.532,0.489-0.685,0.527c-7.189,1.753-7.72,0.856-8.064,9.492 c-0.464,11.637-0.088,23.307-0.045,34.962c0.006,1.629,0.171,3.258,0.273,5.077c2.37,0.212,4.666,0.417,7.031,0.628 c-3.086,1.252-5.974,2.423-8.862,3.595c0.085,0.073,0.169,0.146,0.254,0.219c3.627-0.313,7.261-0.929,10.881-0.858 c4.23,0.083,5.497,1.389,6.016,5.526c0.373,2.965,0.603,5.991,0.458,8.968c-0.178,3.642-2.117,5.624-5.936,6.539 c3.632-1.591,3.857-4.671,3.694-7.908c-0.091-1.818-0.182-3.638-0.341-5.452c-0.413-4.694-0.944-5.277-5.764-5 c-2.606,0.15-5.178,0.872-7.766,1.336c0.057,0.3,0.114,0.6,0.171,0.899C222.689,78.742,223.732,78.592,225.079,78.399z M199.78,21.454c-3.994,1.647-8.044,3.317-12.094,4.987c0.106,0.453,0.211,0.906,0.317,1.358c2.768,0,5.536,0,8.741,0 c-3.267,1.393-6.051,2.58-8.834,3.768c0.044,0.228,0.087,0.456,0.131,0.684c0.723,0.068,1.445,0.136,2.197,0.207 c2.084,12.458,4.17,24.923,6.278,37.523c1.714,0,3.232,0,5.512,0c-3.177,1.826-6.036,3.032-7.329,6.574 c6.703-4.965,12.566-5.292,15.385-1.155c3.71,5.444,3.434,13.991-0.804,16.459c3.144-3.631,1.32-7.345,0.326-10.955 c-1.72-6.249-6.927-7.483-11.808-2.923c0.462,0.423,1.215,0.77,1.34,1.273c0.459,1.848,0.659,3.759,1.051,5.626 c0.37,1.76,0.859,3.495,1.349,5.45c-0.944,0-1.697,0-2.45,0c-0.063,0.173-0.125,0.346-0.188,0.519 c1.365,0.722,2.73,1.445,4.095,2.167c-0.029,0.112-0.058,0.224-0.088,0.336c-1.533-0.319-3.066-0.638-4.625-0.962 c-0.896,2.986,1.363,3.986,3.445,4.376c4.011,0.751,7.85-0.232,11.056-2.807c2.069-1.662,2.515-4.125,2.329-6.704 c-1.154-15.998-2.339-31.995-3.421-47.998c-0.289-4.271-0.234-8.565-0.391-12.847c-0.032-0.875-0.032-1.949-0.51-2.578 c-2.934-3.858-6.805-6.054-11.765-5.736c-5.141,0.33-9.731,1.859-12.577,6.661C190.751,22.816,195.103,21.219,199.78,21.454z M164.446,67.842c-0.634-0.551-1.767-0.873-2.616-0.784c-20.059,2.097-39.869,5.668-59.555,10.008 c-2.097,0.462-2.978,1.447-3.182,3.388c-0.558,5.322,0.443,10.315,3.038,15.013c1.074,1.945,2.411,2.494,4.689,2.047 c14.034-2.752,28.056-5.608,42.169-7.893c10.159-1.645,20.454-2.458,30.689-3.634c0.99-0.114,1.988-0.168,3.062-0.257 c0.316-2.009-0.57-2.434-2.292-2.285c-20.825,1.802-41.429,5.047-61.864,9.402c-3.563,0.759-7.151,1.422-10.686,2.295 c-2.133,0.527-3.585-0.031-4.405-2.029c-0.915-2.23-1.738-4.497-2.411-6.251c2.02,0,3.724,0.26,5.323-0.041 c14.323-2.692,28.591-5.698,42.953-8.158c7.622-1.305,15.398-1.714,23.104-2.527c0.492-0.052,0.986-0.095,0.961-0.092 C170.528,73.376,167.549,70.538,164.446,67.842z M301.667,80.248c0.034,0.621,0.861,1.598,1.47,1.729 c8.368,1.8,16.752,3.532,25.162,5.123c1.033,0.195,2.237-0.517,3.548-0.857c-0.271,1.184-0.477,2.519-0.886,3.79 c-1.648,5.125-2.675,5.708-7.838,4.634c-6.687-1.391-13.367-2.818-20.07-4.126c-0.91-0.178-1.936,0.24-2.909,0.382 c0.024,0.37,0.048,0.741,0.071,1.111c3.884,0.809,7.768,1.619,11.653,2.425c5.083,1.055,10.152,2.188,15.262,3.084 c0.915,0.16,2.433-0.36,2.941-1.081c3.518-4.988,4.632-10.634,3.679-16.609c-0.154-0.964-1.357-2.315-2.286-2.516 c-9.433-2.043-18.909-3.886-28.374-5.776c-0.345-0.069-0.707-0.049-1.494-0.098C301.598,74.457,301.511,77.359,301.667,80.248z M270.9,28.705c0.246-0.098,0.492-0.196,0.737-0.294c1.488,3.791,2.977,7.582,4.643,11.826c0.791,0.259,2.253,0.737,3.716,1.215 c0.768-13.042-11.689-25.482-23.563-23.362c-2.09,0.373-4.021,1.632-5.781,3.083c1.683-0.364,3.367-0.729,5.05-1.093 c-4.35,3.726-4.923,4.678-4.559,8.075c6.008-1.581,12.416-0.077,20.634,9.312C271.485,34.546,271.192,31.625,270.9,28.705z M313.23,98.597c-0.474,3.763-1.031,7.409-1.377,11.076c-1.252,13.278-1.841,26.557,1.405,39.658 c0.713,2.879,1.843,5.749,3.298,8.332c3.496,6.206,9.118,7.278,14.589,2.669c2.606-2.195,5-4.865,6.794-7.751 c3.291-5.294,6.067-10.908,9.057-16.389c-0.269-0.146-0.539-0.293-0.808-0.439c-1.033,1.996-1.885,4.115-3.135,5.965 c-3.404,5.035-6.514,10.38-10.589,14.826c-6.369,6.948-12.069,5.524-15.183-3.378c-3.12-8.919-3.373-18.249-2.951-27.542 c0.35-7.718,1.319-15.408,2.017-23.11c0.089-0.983,0.2-1.963,0.324-3.174C315.42,99.069,314.542,98.88,313.23,98.597z M116.382,99.323c0.54,4.683,1.145,9.261,1.583,13.855c1.111,11.643,1.602,23.3-0.849,34.834c-0.67,3.156-1.831,6.323-3.381,9.149 c-2.251,4.104-5.972,5.059-9.661,2.181c-3.391-2.645-6.414-5.927-9.018-9.367c-2.781-3.673-4.881-7.861-7.267-11.805 c-0.048,0.079-0.23,0.256-0.194,0.343c3.098,7.432,6.732,14.555,12.484,20.342c1.262,1.27,2.818,2.337,4.407,3.177 c3.639,1.924,7.382,1.515,9.868-1.731c2.107-2.752,3.878-5.997,4.896-9.301c3.321-10.784,3.212-21.941,2.58-33.063 c-0.361-6.347-1.194-12.668-1.849-19.349C118.511,98.889,117.552,99.085,116.382,99.323z M361.95,29.056 c-0.664-2.334-1.653-4.655-2.92-6.721c-2.986-4.872-8.108-6.217-12.627-2.755c-3.621,2.774-6.913,6.228-9.592,9.928 c-6.823,9.426-14.949,29.242-17.442,41.289c1.004,0.226,2.016,0.454,3.187,0.718c1.635-5.043,3.162-9.971,4.829-14.851 c3.156-9.242,6.864-18.262,12.406-26.357c2.032-2.968,4.481-5.793,7.234-8.091c4.182-3.492,8.5-2.725,10.802,2.229 c2.116,4.554,3.578,9.533,4.522,14.478c1.018,5.335,1.1,10.849,1.641,16.843C364.423,46.483,364.399,37.662,361.95,29.056z M71.785,33.271c0.575-3.236,2.003-6.458,3.656-9.334c2.466-4.291,6.434-5.249,10.095-1.976c3.671,3.283,6.979,7.218,9.576,11.405 c6.723,10.838,10.68,22.896,14.308,35.046c0.284,0.95,0.573,1.899,0.89,2.951c0.716-0.071,1.34-0.097,1.949-0.204 c0.427-0.075,0.835-0.26,1.692-0.54c-1.942-5.785-3.662-11.523-5.788-17.106c-4.094-10.754-8.675-21.29-16.606-29.919 c-1.462-1.591-3.17-3.063-5.013-4.179c-5.023-3.043-10.058-1.917-12.744,3.317c-1.836,3.578-3.262,7.6-3.784,11.567 c-0.931,7.08-1.04,14.268-1.493,21.411c0.08-0.007,0.16-0.015,0.241-0.022C69.734,48.209,70.467,40.688,71.785,33.271z M95.284,63.538c-2.642-0.104-4.172,1.857-4.593,3.971c-0.932,4.684-1.919,9.483-1.833,14.216 c0.155,8.534,2.232,16.788,6.23,24.395c1.419,2.699,3.235,5.331,5.389,7.472c3.598,3.576,7.511,2.13,8.505-2.878 c0.239-1.206,0.306-2.446,0.049-3.782c-0.66,1.456-1.215,2.972-2.007,4.352c-1.049,1.827-2.546,2.148-3.914,0.4 c-1.167-1.491-2.265-3.111-3.019-4.838c-4.799-10.991-7.231-22.492-7.091-34.504c0.014-1.176,0.155-2.371,0.408-3.519 c0.801-3.642,2.287-4.135,5.305-1.833c0.361,0.276,0.71,0.567,1.065,0.851C99.04,65.618,97.876,63.64,95.284,63.538z M327.269,115.204c3.544,1.241,5.779-1.608,7.604-4.088c5.493-7.468,8.056-16.122,8.888-25.174 c0.477-5.183-0.195-10.477-0.44-15.717c-0.041-0.872-0.471-1.756-0.852-2.574c-0.935-2.005-1.931-4.11-4.568-4.112 c-2.639-0.002-3.899,1.922-5.019,4.002c0.255,0.081,0.421,0.198,0.52,0.156c1.52-0.635,3.031-1.29,4.544-1.941 c0.677,1.719,1.808,3.4,1.953,5.162c0.724,8.827-0.977,17.41-3.319,25.855c-0.968,3.488-2.417,6.847-3.718,10.237 c-0.388,1.01-0.858,2.069-1.566,2.858c-0.988,1.099-2.236,1.965-3.372,2.931c-0.957-1.126-1.996-2.196-2.841-3.401 c-0.495-0.705-0.682-1.626-1.008-2.45C323.936,110.228,323.612,113.923,327.269,115.204z M255.096,39.058 c-0.303,1.003,0.416,2.917,1.296,3.568c3.259,2.413,6.645,4.734,10.247,6.577c2.624,1.342,5.948-1.658,5.461-5.078 c-0.3-2.11-1.343-4.458-2.801-5.986c-2.916-3.055-6.346-5.62-10.189-8.926C257.491,33.055,256.028,35.977,255.096,39.058z M247.779,65.116c0,4.599,0,8.99,0,13.642c-0.777-0.17-1.502-0.329-2.938-0.644c0.92,0.936,1.481,1.404,1.911,1.971 c0.445,0.588,0.763,1.272,1.137,1.913c-0.611,0.341-1.222,0.682-1.919,1.071c2.191,1.651,4.549,1.332,6.886,0.369 c5.584-2.301,7.825-7.937,8.195-12.903c0.041-0.549-0.737-1.291-1.302-1.726c-0.984-0.756-2.1-1.343-2.957-1.875 c-0.357,3.626-0.598,7.201-1.133,10.731c-0.138,0.912-1.198,1.685-2.153,2.271c2.745-4.313,1.576-8.764,0.688-13.008 c-0.743-3.55-6.009-4.057-9.784-0.584C245.913,65.795,246.721,65.501,247.779,65.116z M423.471,106.735c1.236,0,2.373,0,3.814,0 c-1.489,4.94-1.261,10.76-6.932,13.778c1.441,1.397,2.355,1.512,3.483,0.051c0.878-1.137,1.617-2.426,2.186-3.747 c2.37-5.502,3.551-11.256,3.182-17.259c-0.209-3.394-0.628-3.81-3.7-4.31C424.831,99.053,424.186,102.699,423.471,106.735z M6.075,106.798c1.059,0,2.125,0,3.444,0c-0.689-4.013-1.316-7.669-1.953-11.375C5.46,95.04,4.33,95.875,4.092,97.854 c-0.958,7.949,0.581,15.386,4.722,22.253c1.062,1.762,2.473,1.861,4.338,0.467C9.181,118.97,6.081,112.602,6.075,106.798z M243.824,63.161c2.644-0.592,5.208-1.165,7.848-1.756c-1.432-2.917-2.998-6.107-4.668-9.509 C245.752,55.814,248.028,60.508,243.824,63.161z" style="fill: inherit;"/></g><g id="__id1_s26hz98ztx"><path d="M276.703,73.009c1.594,0,3.189,0,5.153,0c-2.119,1.875-4.39,2.295-6.714,1.924 c-2.022-0.323-3.171,0.502-3.871,2.147c-1.066,2.509-2.086,5.045-2.961,7.625c-1.094,3.222,0.022,6.096,1.775,8.777 c0.945,1.446,1.987,2.83,3.353,4.764c-5.913-2.339-9.191-6.365-11.133-11.698c-0.26,0.051-0.519,0.102-0.779,0.153 c0.309,3.49,0.617,6.979,0.932,10.534c-2.406-2.577-2.989-5.838-3.07-9.289c-0.239-0.048-0.477-0.096-0.716-0.145 c-0.644,2.052-1.288,4.104-2.114,6.739c-0.455-1.756-0.81-3.126-1.061-4.096c-3.639,0.206-7.323,0.414-11.51,0.651 c-9.456,13.846-16.168,16.691-27.128,10.866c-5.867,4.06-8.629,10.191-10.829,16.727c-0.443-6.859,1.975-12.779,5.67-17.776 c-3.574,0-7.23,0.126-10.874-0.034c-4.078-0.178-7.32-2.222-9.732-5.388c-1.191-1.563-2.333-1.995-4.133-1.324 c-8.523,3.176-17.077,6.269-25.575,9.508c-0.651,0.248-1.513,1.573-1.344,2.099c3.903,12.191,9.407,23.397,20.708,30.531 c7.58,4.784,16.092,6.2,24.915,5.716c1.963-0.108,3.253,0.351,4.505,1.769c0.999,1.131,2.286,2.008,3.701,2.823 c-3.511-3.87-6.015-8.13-6.306-13.714c5.958,8.452,14.566,9.308,23.356,8.551c16.961-1.461,31.427-8.874,44.94-18.98 c12.08-9.034,17.526-21.073,18.675-35.512c0.628-7.894,0.786-15.826,1.13-23.742c0.034-0.787-0.113-1.582-0.218-2.915 c-0.862,1.116-1.415,1.832-1.968,2.548c2.32-6.205-1.609-9.005-6.019-11.7c-1.849-1.13-3.445-2.678-5.132-4.065 c-2.264-1.86-4.623-3.493-7.882-3.725c-0.2,1.296-0.314,2.448-0.561,3.571c-1.009,4.598-4.482,6.951-8.892,5.534 c-2.812-0.904-5.611-2.275-7.987-4.019c-4.535-3.33-5.54-8.265-3.138-13.38c0.761-1.62,1.78-3.12,2.684-4.68 c-3-0.974-5.188,0.247-6.416,3.622c-1.543,4.24-1.039,8.491,0.367,12.602c3.633,10.621,11.217,17.53,21.401,21.635 c4.452,1.795,9.148,0.898,13.787-0.278C284,70.406,282.229,71.288,276.703,73.009z" style="fill: rgb(255, 255, 255);"/></g><g id="__id2_s26hz98ztx"><path d="M53.39,166.143c-3.945,3.71-7.33,4.005-11.759,0.851c-1.622-1.155-3.326-2.4-4.469-3.983 c-3.35-4.64-7.03-9.179-9.525-14.274C14.435,121.779,8.607,93.175,10.02,63.215c0.271-5.744,1.719-11.526,3.326-17.088 c1.679-5.813,5.909-8.387,12.006-8.439c1.16-0.01,2.321-0.001,3.035-0.001c1.853-4.23,3.288-8.29,5.339-12.012 c3.371-6.115,9.664-9.271,16.4-6.568c0.306,0.123,0.689,0.055,1.087,0.08c3.448-6.858,7.204-13.555,15.471-15.084 c8.201-1.516,14.194,3.067,19.747,8.286c-0.662,0.051-1.239-0.118-1.805-0.315c-4.929-1.716-9.329-0.838-12.556,3.294 c-2.148,2.75-3.886,5.971-5.141,9.237c-2.771,7.209-3.69,14.847-3.955,22.518c-1.057,30.531,4.775,59.819,16.431,87.969 c4.161,10.049,9.199,19.676,16.907,27.576c4.579,4.693,9.664,8.422,17.236,6.347c-0.481,0.741-0.689,1.125-0.955,1.463 c-6.209,7.884-14.942,9.077-24.082,3.287c-1.273-0.806-2.516-1.659-3.723-2.457c-7.106,7.73-13.355,8.305-21.398,1.874 c-3.046-2.435-5.713-5.343-8.87-8.337C54.221,165.192,53.848,165.713,53.39,166.143z M35.023,50.098 c3.149-1.073,6.082,1.299,6.019,4.617c-0.537,28.244,5.387,55.355,14.464,81.898c0.675,1.973,0.191,3.224-1.388,4.146 c-3.134,1.829-6.339,2.211-9.581-0.084c-0.066,0.314-0.236,0.615-0.148,0.775c4.955,9.034,9.782,18.209,17.116,25.587 c2.752,2.768,6.219,5.112,9.78,6.719c4.176,1.885,8.092,0.176,11.356-3.841c-2.953-3.281-5.97-6.535-8.879-9.884 c-9.207-10.601-15.108-22.945-18.7-36.399c-5.767-21.6-10.68-43.349-10.316-65.921c0.176-10.912,1.551-21.612,5.383-31.891 c0.542-1.453,0.224-2.118-1.128-2.722c-3.959-1.766-8.504-0.472-11.012,3.413c-3.279,5.08-4.55,10.884-5.669,16.708 c-0.617,3.213-1.055,6.461-1.567,9.653C32.222,51.888,33.495,50.619,35.023,50.098z M30.529,149.215 c3.434,4.691,6.73,9.544,10.669,13.788c4.817,5.191,8.029,4.815,12.727-0.259C29.69,125.504,22.616,84.894,28.766,41.48 c-6.281-1.925-10.972,0.065-13.38,6.138c-1.221,3.078-1.811,6.405-2.125,9.809c1.159-1.088,2.151-2.559,3.523-3.154 c1.349-0.585,3.183-0.655,4.623-0.272c1.727,0.46,1.82,2.158,1.711,3.851c-1.811,28.328,3.25,55.509,13.657,81.815 c0.485,1.226,0.529,3.466-0.215,4.142c-1.162,1.056-3.162,1.515-4.833,1.581c-1.177,0.046-2.396-0.979-4.126-1.767 C28.701,145.762,29.387,147.655,30.529,149.215z M87.694,156.67c-4.121-6.297-7.396-13.149-11.011-19.775 c-0.546-1-0.912-2.098-1.396-3.231c-3.597,4.93-6.15,5.564-12.203,2.72c1.367,2.677,2.427,4.945,3.653,7.119 c5.089,9.022,11.045,17.39,18.879,24.277c3.806,3.346,7.985,6.03,13.094,7.027c3.264,0.637,5.854-0.416,8.339-2.791 C98,169.945,92.318,163.736,87.694,156.67z M59.316,48.263c0.665-4.961,1.172-9.893,2.018-14.766 c1.128-6.491,2.893-12.805,6.764-18.3c2.903-4.12,5.103-5.502,9.958-6.451C74.713,5.34,67.312,4.945,62.471,8.244 c-1.899,1.294-3.632,3.102-4.875,5.038c-4.888,7.619-6.636,16.285-7.785,25.094c-0.468,3.589-0.771,7.2-1.223,11.504 C52.461,45.33,54.409,45.131,59.316,48.263z" style="fill: rgb(255, 255, 255);"/></g><g id="__id3_s26hz98ztx"><path d="M375.667,167.431c-3.627,2.995-7.038,6.409-11.077,8.708c-5.237,2.98-10.464,1.56-14.577-2.879 c-0.605-0.653-1.202-1.313-1.777-1.942c-13.28,8.275-24.253,7.424-28.051-1.614c2.529-0.271,5.426,0.011,7.782-0.984 c2.943-1.242,5.741-3.221,8.076-5.436c6.299-5.974,10.581-13.425,14.352-21.151c9.109-18.666,14.478-38.47,17.573-58.922 c2.492-16.468,3.468-32.989,0.556-49.521c-1.015-5.762-2.59-11.375-5.9-16.327c-4.025-6.02-9.236-7.505-15.838-4.564 c-0.199,0.088-0.438,0.085-1.284,0.236c5.823-5.222,11.406-9.739,19.163-9.126c9.442,0.745,13.387,8.119,17.024,14.961 c3.016-0.163,5.781-0.786,8.37-0.356c5.48,0.911,8.483,5.053,10.681,9.71c1.428,3.027,2.435,6.252,3.669,9.488 c0.643,0,1.367,0.015,2.089-0.002c7.311-0.18,11.543,2.366,13.483,9.386c1.613,5.835,2.876,11.923,3.131,17.948 c1.122,26.535-4.065,52.007-14.221,76.471c-3.574,8.609-7.926,16.864-14.852,23.365c-6.207,5.825-10.777,5.58-15.493,0.2 c-0.106-0.121-0.311-0.157-0.6-0.294C377.207,165.657,376.56,166.693,375.667,167.431z M387.074,42.686 c2.15,13.518,1.555,27.089-0.489,40.568c-2.513,16.577-5.878,32.981-11.341,48.882c-4.304,12.528-11.287,23.409-20.468,32.923 c-1.504,1.559-2.917,3.206-4.358,4.796c3.166,4.236,7.462,5.828,12.024,3.644c3.296-1.578,6.498-3.787,9.053-6.389 c7.409-7.548,12.253-16.888,17.168-25.543c-2.514,0.067-5.147,0.52-7.64,0.112c-3.508-0.575-4.271-2.602-3.154-5.935 c8.698-25.967,14.527-52.456,14.113-80.02c-0.04-2.685,0.466-4.758,3.165-5.597c2.541-0.79,4.644,0.089,6.18,2.277 c0.14,0.199,0.334,0.359,0.885,0.94c-1.159-9.236-2.31-17.962-6.548-25.872c-2.813-5.25-7.771-6.477-12.837-3.591 C384.305,30.302,386.079,36.432,387.074,42.686z M381.752,165.141c2.967,2.073,5.176,2.073,7.965-0.211 c6.901-5.651,11.706-12.862,15.658-21.28c-1.516,0.711-2.571,1.351-3.715,1.709c-1.97,0.618-3.77,0.263-5.235-1.342 c-1.349-1.478-0.85-2.907-0.202-4.53c10.507-26.354,15.586-53.618,13.653-82.043c-0.224-3.298,2.895-5.181,5.993-3.434 c1.45,0.818,2.578,2.207,3.799,3.289c0.44-4.024-1.695-10.762-4.445-13.635c-3.169-3.311-7.017-3.289-11.011-2.338 c6.228,43.525-0.892,84.023-25.173,121.554C379.663,163.406,380.643,164.366,381.752,165.141z M357.913,133.753 c-7.452,15.29-13.802,31.472-31.571,38.627c2.064,2.01,4.613,3.036,7.803,2.455c5.908-1.076,10.547-4.397,14.751-8.395 c8.692-8.264,15.272-18.046,20.392-28.843c0.14-0.296,0.172-0.643,0.284-1.082C363.87,139.275,361.102,138.598,357.913,133.753z M374.957,12.46c-4.418-6.825-13.917-8.54-20.556-3.598c5.84,0.174,9.179,3.756,11.744,8.214 c4.368,7.591,5.797,16.033,6.771,24.578c0.247,2.168,0.415,4.345,0.597,6.287c1.939-0.608,3.915-1.796,5.785-1.649 c1.73,0.135,3.348,1.699,5.025,2.64C383.086,36.503,382.217,23.675,374.957,12.46z" style="fill: rgb(255, 255, 255);"/></g><g id="__id4_s26hz98ztx"><path d="M186.665,211.838c21.16,1.693,41.796,2.974,62.322-1.539c2.561-0.563,3.221-1.618,3.205-4.192 c-0.115-18.138-0.036-36.277-0.026-54.416c0-0.524-0.082-1.048-0.151-1.885c-11.839,4.882-24.134,5.849-37.348,5.8 c0,9.193,0,18.23,0,27.266c-0.317-0.001-0.634-0.001-0.951-0.002c-0.453-8.046-1.024-16.089-1.29-24.141 c-0.086-2.617-0.912-3.581-3.48-3.31c-1.514,0.16-3.059,0.029-4.942,0.029c-0.316,15.177-0.63,30.271-0.944,45.364 c-0.126,0.011-0.252,0.022-0.378,0.033c-0.754-6.357-1.518-12.712-2.259-19.071c-0.97-8.325-1.935-16.65-2.869-24.979 c-0.17-1.512-0.553-2.636-2.412-2.565c-0.711,0.027-1.43-0.261-2.15-0.376c-5.811-0.932-6.062-0.933-6.142,5.219 c-0.197,15.128-0.141,30.259-0.184,45.388C186.659,206.817,186.665,209.172,186.665,211.838z" style="fill: rgb(255, 255, 255);"/></g><g id="__id5_s26hz98ztx"><path d="M221.645,78.892c1.044-0.15,2.088-0.3,3.434-0.493c0.243,4.925,0.479,9.697,0.728,14.729 c-1.675-0.147-2.907-0.256-4.138-0.364c-0.09,0.203-0.18,0.406-0.27,0.609c1.935,0.869,3.869,1.738,5.804,2.608 c-0.011,0.126-0.022,0.252-0.033,0.378c-1.73-0.117-3.46-0.234-5.19-0.352c-0.12,0.196-0.239,0.393-0.359,0.589 c1.537,0.796,2.993,1.958,4.627,2.321c4.886,1.083,10.192-1.413,12.463-5.89c2.097-4.134,3.122-8.375,1.325-13.111 c-0.971-2.559-1.345-5.576-1.12-8.315c0.945-11.517,2.186-23.011,3.389-34.506c0.341-3.257,0.822-6.508,1.425-9.727 c0.362-1.932,1.086-3.797,1.746-6.027c-2.989-3.885-6.865-7.001-12.441-7.197c-3.089-0.109-6.189-0.098-9.278,0.016 c-4.208,0.155-6.653,2.809-8.43,6.448c4.401-5.128,9.832-6.233,16.056-4.389c-3.925,0.602-8.575-0.653-10.208,4.124 c2.582,0,5.73,0,9.155,0c-0.41,0.321-0.532,0.489-0.685,0.527c-7.189,1.753-7.72,0.856-8.064,9.492 c-0.464,11.637-0.088,23.307-0.045,34.962c0.006,1.629,0.171,3.258,0.273,5.077c2.37,0.212,4.666,0.417,7.031,0.628 c-3.086,1.252-5.974,2.423-8.862,3.595c0.085,0.073,0.169,0.146,0.254,0.219c3.627-0.313,7.261-0.929,10.881-0.858 c4.23,0.083,5.497,1.389,6.016,5.526c0.373,2.965,0.603,5.991,0.458,8.968c-0.178,3.642-2.117,5.624-5.936,6.539 c3.632-1.591,3.857-4.671,3.694-7.908c-0.091-1.818-0.182-3.638-0.341-5.452c-0.413-4.694-0.944-5.277-5.764-5 c-2.606,0.15-5.178,0.872-7.766,1.336C221.531,78.292,221.588,78.592,221.645,78.892z" style="fill: rgb(255, 255, 255);"/></g><g id="__id6_s26hz98ztx"><path d="M186.444,24.758c4.307-1.942,8.659-3.538,13.336-3.304c-3.994,1.647-8.044,3.317-12.094,4.987 c0.106,0.453,0.211,0.906,0.317,1.358c2.768,0,5.536,0,8.741,0c-3.267,1.393-6.051,2.58-8.834,3.768 c0.044,0.228,0.087,0.456,0.131,0.684c0.723,0.068,1.445,0.136,2.197,0.207c2.084,12.458,4.17,24.923,6.278,37.523 c1.714,0,3.232,0,5.512,0c-3.177,1.826-6.036,3.032-7.329,6.574c6.703-4.965,12.566-5.292,15.385-1.155 c3.71,5.444,3.434,13.991-0.804,16.459c3.144-3.631,1.32-7.345,0.326-10.955c-1.72-6.249-6.927-7.483-11.809-2.921 c0.463,0.421,1.217,0.768,1.342,1.271c0.459,1.848,0.659,3.759,1.051,5.626c0.37,1.76,0.859,3.495,1.349,5.45 c-0.944,0-1.697,0-2.45,0c-0.063,0.173-0.125,0.346-0.188,0.519c1.365,0.722,2.73,1.445,4.095,2.167 c-0.029,0.112-0.058,0.224-0.088,0.336c-1.533-0.319-3.066-0.638-4.625-0.962c-0.896,2.986,1.363,3.986,3.445,4.376 c4.011,0.751,7.85-0.232,11.056-2.807c2.069-1.662,2.515-4.125,2.329-6.704c-1.154-15.998-2.339-31.995-3.421-47.998 c-0.289-4.271-0.234-8.565-0.391-12.847c-0.032-0.875-0.032-1.949-0.51-2.578c-2.934-3.858-6.805-6.054-11.765-5.736 C193.88,18.427,189.29,19.956,186.444,24.758z" style="fill: rgb(255, 255, 255);"/></g><g id="__id7_s26hz98ztx"><path d="M173.422,76.044c-2.894-2.669-5.873-5.507-8.976-8.202c-0.634-0.551-1.767-0.873-2.616-0.784 c-20.059,2.097-39.869,5.668-59.555,10.008c-2.097,0.462-2.978,1.447-3.182,3.388c-0.558,5.322,0.443,10.315,3.038,15.013 c1.074,1.945,2.411,2.494,4.689,2.047c14.034-2.752,28.056-5.608,42.169-7.893c10.159-1.645,20.454-2.458,30.689-3.634 c0.99-0.114,1.988-0.168,3.062-0.257c0.316-2.009-0.57-2.434-2.292-2.285c-20.825,1.802-41.429,5.047-61.864,9.402 c-3.563,0.759-7.151,1.422-10.686,2.295c-2.133,0.527-3.585-0.031-4.405-2.029c-0.915-2.23-1.738-4.497-2.411-6.251 c2.02,0,3.724,0.26,5.323-0.041c14.323-2.692,28.591-5.698,42.953-8.158c7.622-1.305,15.398-1.714,23.104-2.527 C172.954,76.085,173.447,76.042,173.422,76.044z" style="fill: rgb(255, 255, 255);"/></g><g id="__id8_s26hz98ztx"><path d="M301.598,71.464c0,2.993-0.087,5.895,0.069,8.784c0.034,0.621,0.861,1.598,1.47,1.729 c8.368,1.8,16.752,3.532,25.162,5.123c1.033,0.195,2.237-0.517,3.548-0.857c-0.271,1.184-0.477,2.519-0.886,3.79 c-1.648,5.125-2.675,5.708-7.838,4.634c-6.687-1.391-13.367-2.818-20.07-4.126c-0.91-0.178-1.936,0.24-2.909,0.382 c0.024,0.37,0.048,0.741,0.071,1.111c3.884,0.809,7.768,1.619,11.653,2.425c5.083,1.055,10.152,2.188,15.262,3.084 c0.915,0.16,2.433-0.36,2.941-1.081c3.518-4.988,4.632-10.634,3.679-16.609c-0.154-0.964-1.357-2.315-2.286-2.516 c-9.433-2.043-18.909-3.886-28.374-5.776C302.748,71.493,302.385,71.512,301.598,71.464z" style="fill: rgb(255, 255, 255);"/></g><g id="__id9_s26hz98ztx"><path d="M182.981,69.473c-2.265-0.238-4.74,0.026-6.751-0.817c-4.507-1.889-6.96-5.983-9.287-10.055 c-0.583-1.02-1.199-2.021-2.063-2.86c2.449,5.788,4.665,11.792,10.372,15.363c3.098,1.939,6.47,1.586,9.688,0.035 c2.163-1.043,3.063-2.873,2.557-5.19c-2.31-10.583-4.679-21.153-7.049-31.723c-0.178-0.795-0.513-1.556-0.8-2.324 c-2.582-6.906-6.808-8.504-13.278-5.028c-3.613,1.941-6.37,5.502-7.294,9.042c1.709-1.527,3.533-3.842,5.917-5.092 c2.334-1.223,5.238-1.361,7.892-1.976c0.077,0.279,0.154,0.557,0.231,0.836c-1.454,0.635-2.949,1.192-4.35,1.926 c-1.339,0.702-2.581,1.589-3.673,2.892c1.68-0.301,3.361-0.601,5.041-0.902c-3.357,2.667-2.49,5.631-0.87,8.611 c1.478,2.718,2.977,5.433,4.644,8.037c0.627,0.979,1.749,1.641,2.729,2.524c-0.848,1.11-3.762,1.609-2.347,4.581 c1.652-3.063,3.747-4.318,6.334-3.876c0.532,0.091,1.08,0.233,1.557,0.477c3.187,1.636,5.037,12.134,2.552,14.664 c-0.46,0.468-1.229,0.633-1.855,0.937L182.981,69.473z" style="fill: rgb(255, 255, 255);"/></g><g id="__id10_s26hz98ztx"><path d="M271.777,37.467c-0.292-2.921-0.585-5.841-0.877-8.762c0.246-0.098,0.492-0.196,0.737-0.294 c1.488,3.791,2.977,7.582,4.643,11.826c0.791,0.259,2.253,0.737,3.716,1.216c0.768-13.043-11.689-25.484-23.563-23.363 c-2.09,0.373-4.021,1.632-5.781,3.083c1.683-0.364,3.367-0.729,5.05-1.093c-4.35,3.726-4.923,4.678-4.559,8.075 C257.151,26.574,263.559,28.078,271.777,37.467z" style="fill: rgb(255, 255, 255);"/></g><g id="__id11_s26hz98ztx"><path d="M316.671,99.339c-1.251-0.27-2.129-0.459-3.442-0.741c-0.474,3.763-1.031,7.409-1.377,11.076 c-1.252,13.278-1.841,26.557,1.405,39.658c0.713,2.879,1.843,5.749,3.298,8.332c3.496,6.206,9.118,7.278,14.589,2.669 c2.606-2.195,5-4.865,6.794-7.751c3.291-5.294,6.067-10.908,9.057-16.389c-0.269-0.146-0.539-0.293-0.808-0.439 c-1.033,1.996-1.885,4.115-3.135,5.965c-3.404,5.035-6.514,10.38-10.589,14.826c-6.369,6.948-12.069,5.524-15.183-3.378 c-3.12-8.919-3.373-18.249-2.951-27.542c0.35-7.718,1.319-15.408,2.017-23.11C316.436,101.53,316.547,100.549,316.671,99.339z" style="fill: rgb(255, 255, 255);"/></g><g id="__id12_s26hz98ztx"><path d="M119.98,98.589c-1.469,0.3-2.429,0.495-3.598,0.734c0.54,4.683,1.145,9.261,1.583,13.855 c1.111,11.643,1.602,23.3-0.849,34.834c-0.67,3.156-1.831,6.323-3.381,9.149c-2.251,4.104-5.972,5.059-9.661,2.181 c-3.391-2.645-6.414-5.927-9.018-9.367c-2.781-3.673-4.881-7.861-7.267-11.805c-0.048,0.079-0.23,0.256-0.194,0.343 c3.098,7.432,6.732,14.555,12.484,20.342c1.262,1.27,2.818,2.337,4.407,3.177c3.639,1.924,7.382,1.515,9.868-1.731 c2.107-2.752,3.878-5.997,4.896-9.301c3.321-10.784,3.212-21.941,2.58-33.063C121.469,111.591,120.635,105.27,119.98,98.589z" style="fill: rgb(255, 255, 255);"/></g><g id="__id13_s26hz98ztx"><path d="M363.99,55.766c0.432-9.282,0.409-18.104-2.04-26.71c-0.664-2.334-1.653-4.655-2.92-6.721 c-2.986-4.872-8.108-6.217-12.627-2.755c-3.621,2.774-6.913,6.228-9.592,9.928c-6.823,9.426-14.949,29.242-17.442,41.289 c1.004,0.226,2.016,0.454,3.187,0.718c1.635-5.043,3.162-9.971,4.829-14.851c3.156-9.242,6.864-18.262,12.406-26.357 c2.032-2.968,4.481-5.793,7.234-8.091c4.182-3.492,8.5-2.725,10.802,2.229c2.116,4.554,3.578,9.533,4.522,14.478 C363.367,44.258,363.449,49.771,363.99,55.766z" style="fill: rgb(255, 255, 255);"/></g><g id="__id14_s26hz98ztx"><path d="M68.763,55.687c0.971-7.478,1.704-14.999,3.022-22.416c0.575-3.236,2.003-6.458,3.656-9.334 c2.466-4.291,6.434-5.249,10.095-1.976c3.671,3.283,6.979,7.218,9.576,11.405c6.723,10.838,10.68,22.896,14.308,35.046 c0.284,0.95,0.573,1.899,0.89,2.951c0.716-0.071,1.34-0.097,1.949-0.204c0.427-0.075,0.835-0.26,1.692-0.54 c-1.942-5.785-3.662-11.523-5.788-17.106c-4.094-10.754-8.675-21.29-16.606-29.919c-1.462-1.591-3.17-3.063-5.013-4.179 c-5.023-3.043-10.058-1.917-12.744,3.317c-1.836,3.578-3.262,7.6-3.784,11.567c-0.931,7.08-1.04,14.268-1.493,21.411 C68.603,55.702,68.683,55.695,68.763,55.687z" style="fill: rgb(255, 255, 255);"/></g><g id="__id15_s26hz98ztx"><path d="M99.779,67.842c-0.739-2.224-1.902-4.202-4.494-4.304c-2.642-0.104-4.172,1.857-4.593,3.971 c-0.932,4.684-1.919,9.483-1.833,14.216c0.155,8.534,2.232,16.788,6.23,24.395c1.419,2.699,3.235,5.331,5.389,7.472 c3.598,3.576,7.511,2.13,8.505-2.878c0.239-1.206,0.306-2.446,0.049-3.782c-0.66,1.456-1.215,2.972-2.007,4.352 c-1.049,1.827-2.546,2.148-3.914,0.4c-1.167-1.491-2.265-3.111-3.019-4.838c-4.799-10.991-7.231-22.492-7.091-34.504 c0.014-1.176,0.155-2.371,0.408-3.519c0.801-3.642,2.287-4.135,5.305-1.833C99.075,67.266,99.424,67.558,99.779,67.842z" style="fill: rgb(255, 255, 255);"/></g><g id="__id16_s26hz98ztx"><path d="M324.073,106.948c-0.137,3.28-0.46,6.975,3.196,8.256c3.544,1.241,5.779-1.608,7.604-4.088 c5.493-7.468,8.056-16.122,8.888-25.174c0.477-5.183-0.195-10.477-0.44-15.717c-0.041-0.872-0.471-1.756-0.852-2.574 c-0.935-2.005-1.931-4.11-4.568-4.112c-2.639-0.002-3.899,1.922-5.019,4.002c0.255,0.081,0.421,0.198,0.52,0.156 c1.52-0.635,3.031-1.29,4.544-1.941c0.677,1.719,1.808,3.4,1.953,5.162c0.724,8.827-0.977,17.41-3.319,25.855 c-0.968,3.488-2.417,6.847-3.718,10.237c-0.388,1.01-0.858,2.069-1.566,2.858c-0.988,1.099-2.236,1.965-3.372,2.931 c-0.957-1.126-1.996-2.196-2.841-3.401C324.586,108.693,324.398,107.772,324.073,106.948z" style="fill: rgb(255, 255, 255);"/></g><g id="__id17_s26hz98ztx"><path d="M259.109,29.213c-1.618,3.842-3.082,6.763-4.014,9.845c-0.303,1.003,0.416,2.917,1.296,3.568 c3.259,2.413,6.645,4.734,10.247,6.577c2.624,1.342,5.948-1.658,5.461-5.078c-0.3-2.11-1.343-4.458-2.801-5.986 C266.383,35.084,262.953,32.518,259.109,29.213z" style="fill: rgb(255, 255, 255);"/></g><g id="__id18_s26hz98ztx"><path d="M244.409,66.343c1.505-0.548,2.312-0.842,3.371-1.228c0,4.599,0,8.99,0,13.642 c-0.777-0.17-1.502-0.329-2.938-0.644c0.92,0.936,1.481,1.404,1.911,1.971c0.445,0.588,0.763,1.272,1.137,1.913 c-0.611,0.341-1.222,0.682-1.919,1.071c2.191,1.651,4.549,1.332,6.886,0.369c5.584-2.301,7.825-7.937,8.195-12.903 c0.041-0.549-0.737-1.291-1.302-1.726c-0.984-0.756-2.1-1.343-2.957-1.875c-0.357,3.626-0.598,7.201-1.133,10.731 c-0.138,0.912-1.198,1.685-2.153,2.271c2.745-4.313,1.576-8.764,0.688-13.008C253.449,63.378,248.184,62.871,244.409,66.343z" style="fill: rgb(255, 255, 255);"/></g><g id="__id19_s26hz98ztx"><path d="M425.505,95.249c-0.673,3.804-1.319,7.451-2.034,11.487c1.236,0,2.373,0,3.814,0 c-1.489,4.94-1.261,10.76-6.932,13.778c1.441,1.397,2.355,1.512,3.483,0.051c0.878-1.137,1.617-2.426,2.186-3.747 c2.37-5.502,3.551-11.256,3.182-17.259C428.996,96.165,428.576,95.749,425.505,95.249z" style="fill: rgb(255, 255, 255);"/></g><g id="__id20_s26hz98ztx"><path d="M13.152,120.574c-3.971-1.605-7.071-7.972-7.077-13.776c1.059,0,2.125,0,3.444,0 c-0.689-4.013-1.316-7.669-1.953-11.375C5.46,95.04,4.33,95.875,4.092,97.854c-0.958,7.949,0.581,15.386,4.722,22.253 C9.876,121.869,11.286,121.969,13.152,120.574z" style="fill: rgb(255, 255, 255);"/></g><g id="__id21_s26hz98ztx"><path d="M182.875,69.555c1.785-1.945,2.033-4.095,1.023-6.512c-0.663-1.587-1.16-3.246-1.697-4.884 c-0.678-2.072-1.929-2.746-4.023-1.68c1.117,3.693,2.188,7.387,3.379,11.042c0.237,0.728,0.936,1.306,1.423,1.952 C182.981,69.473,182.875,69.555,182.875,69.555z" style="fill: rgb(255, 255, 255);"/></g><g id="__id22_s26hz98ztx"><path d="M247.004,51.896c-1.251,3.918,1.024,8.612-3.18,11.265c2.644-0.592,5.208-1.165,7.848-1.756 C250.24,58.488,248.674,55.298,247.004,51.896z" style="fill: rgb(255, 255, 255);"/></g><g id="__id23_s26hz98ztx"><path d="M30.754,52.871c1.467-0.983,2.741-2.252,4.269-2.773c3.149-1.073,6.082,1.299,6.019,4.617 c-0.537,28.244,5.387,55.355,14.464,81.898c0.675,1.973,0.191,3.224-1.388,4.146c-3.134,1.829-6.339,2.211-9.581-0.084 c-0.066,0.314-0.236,0.615-0.148,0.775c4.955,9.034,9.782,18.209,17.116,25.587c2.752,2.768,6.219,5.112,9.78,6.719 c4.176,1.885,8.092,0.176,11.356-3.841c-2.953-3.281-5.97-6.535-8.879-9.884c-9.207-10.601-15.108-22.945-18.7-36.399 c-5.767-21.6-10.68-43.349-10.316-65.921c0.176-10.912,1.551-21.612,5.383-31.891c0.542-1.453,0.224-2.118-1.128-2.722 c-3.959-1.766-8.504-0.472-11.012,3.413c-3.279,5.08-4.55,10.884-5.669,16.708C31.703,46.431,31.266,49.679,30.754,52.871z" style="fill: inherit;"/></g><g id="__id24_s26hz98ztx"><path d="M27.602,143.623c1.099,2.139,1.785,4.032,2.927,5.592c3.434,4.691,6.73,9.544,10.669,13.788 c4.817,5.191,8.029,4.815,12.727-0.259C29.69,125.504,22.616,84.894,28.766,41.48c-6.281-1.925-10.972,0.065-13.38,6.138 c-1.221,3.078-1.811,6.405-2.125,9.809c1.159-1.088,2.151-2.559,3.523-3.154c1.349-0.585,3.183-0.655,4.623-0.272 c1.727,0.46,1.82,2.158,1.711,3.851c-1.811,28.328,3.25,55.509,13.657,81.815c0.485,1.226,0.529,3.466-0.215,4.142 c-1.162,1.056-3.162,1.515-4.833,1.581C30.551,145.437,29.331,144.411,27.602,143.623z" style="fill: inherit;"/></g><g id="__id25_s26hz98ztx"><path d="M107.049,172.017c-9.049-2.072-14.731-8.281-19.355-15.347c-4.121-6.297-7.396-13.149-11.011-19.775 c-0.546-1-0.912-2.098-1.396-3.231c-3.597,4.93-6.15,5.564-12.203,2.72c1.367,2.677,2.427,4.945,3.653,7.119 c5.089,9.022,11.045,17.39,18.879,24.277c3.806,3.346,7.985,6.03,13.094,7.027C101.974,175.445,104.565,174.392,107.049,172.017z" style="fill: inherit;"/></g><g id="__id26_s26hz98ztx"><path d="M48.589,49.879c3.872-4.55,5.82-4.749,10.726-1.616c0.665-4.961,1.172-9.893,2.018-14.766 c1.128-6.491,2.893-12.805,6.764-18.3c2.903-4.12,5.103-5.502,9.958-6.451C74.713,5.34,67.312,4.945,62.471,8.244 c-1.899,1.294-3.632,3.102-4.875,5.038c-4.888,7.619-6.636,16.285-7.785,25.094C49.344,41.965,49.041,45.576,48.589,49.879z" style="fill: inherit;"/></g><g id="__id27_s26hz98ztx"><path d="M382.83,23.878c1.475,6.424,3.249,12.554,4.244,18.808c2.15,13.518,1.555,27.089-0.489,40.568 c-2.513,16.577-5.878,32.981-11.341,48.882c-4.304,12.528-11.287,23.409-20.468,32.923c-1.504,1.559-2.917,3.206-4.358,4.796 c3.166,4.236,7.462,5.828,12.024,3.644c3.296-1.578,6.498-3.787,9.053-6.389c7.409-7.548,12.253-16.888,17.168-25.543 c-2.514,0.067-5.147,0.52-7.64,0.112c-3.508-0.575-4.271-2.602-3.154-5.935c8.698-25.967,14.527-52.456,14.113-80.02 c-0.04-2.685,0.466-4.758,3.165-5.597c2.541-0.79,4.644,0.089,6.18,2.277c0.14,0.199,0.334,0.359,0.885,0.94 c-1.159-9.236-2.31-17.962-6.548-25.872C392.854,22.219,387.896,20.993,382.83,23.878z" style="fill: inherit;"/></g><g id="__id28_s26hz98ztx"><path d="M379.038,162.88c0.625,0.526,1.605,1.486,2.714,2.261c2.967,2.073,5.176,2.073,7.965-0.211 c6.901-5.651,11.706-12.862,15.658-21.28c-1.516,0.711-2.571,1.351-3.715,1.709c-1.97,0.618-3.77,0.263-5.235-1.342 c-1.349-1.478-0.85-2.907-0.202-4.53c10.507-26.354,15.586-53.618,13.653-82.043c-0.224-3.298,2.895-5.181,5.993-3.434 c1.45,0.818,2.578,2.207,3.799,3.289c0.44-4.024-1.695-10.762-4.445-13.635c-3.169-3.311-7.017-3.289-11.011-2.338 C410.44,84.851,403.32,125.349,379.038,162.88z" style="fill: inherit;"/></g><g id="__id29_s26hz98ztx"><path d="M369.572,136.515c-5.702,2.76-8.47,2.083-11.659-2.762c-7.452,15.29-13.802,31.472-31.571,38.627 c2.064,2.01,4.613,3.036,7.803,2.455c5.908-1.076,10.547-4.397,14.751-8.395c8.692-8.264,15.272-18.046,20.392-28.843 C369.429,137.301,369.46,136.954,369.572,136.515z" style="fill: inherit;"/></g><g id="__id30_s26hz98ztx"><path d="M384.325,48.931c-1.239-12.428-2.108-25.256-9.368-36.472c-4.418-6.825-13.917-8.54-20.556-3.598 c5.84,0.174,9.179,3.756,11.744,8.214c4.368,7.591,5.797,16.033,6.771,24.578c0.247,2.168,0.415,4.345,0.597,6.287 c1.939-0.608,3.915-1.796,5.785-1.649C381.029,46.426,382.647,47.99,384.325,48.931z" style="fill: inherit;"/></g></g></svg>